<?xml version="1.0" encoding="utf-8"?>
<svg version="1.1" xmlns:xlink="http://www.w3.org/1999/xlink" width="24px" height="24px" xmlns="http://www.w3.org/2000/svg">
  <g transform="matrix(1 0 0 1 -465 -139 )">
    <path d="M 23.36 23.28  C 23.68 22.96  23.68 22.56  23.36 22.32  L 17.6 16.64  C 19.12 14.96  20 12.72  20 10.24  C 20 4.8  15.6 0.479999999999998  10.24 0.479999999999998  C 4.8 0.479999999999998  0.480000000000001 4.88  0.480000000000001 10.24  C 0.480000000000001 15.68  4.88 20  10.24 20  C 12.72 20  14.96 19.12  16.64 17.6  L 22.4 23.28  C 22.64 23.52  23.12 23.52  23.36 23.28  Z M 10.32 18.64  C 5.6 18.72  1.76 14.88  1.76 10.24  C 1.76 5.6  5.52 1.76  10.24 1.76  C 14.96 1.76  18.72 5.52  18.72 10.24  C 18.72 12.48  17.84 14.56  16.4 16.08  C 16.32 16.08  16.32 16.16  16.24 16.16  C 16.16 16.24  16.16 16.24  16.16 16.32  C 14.64 17.76  12.56 18.64  10.32 18.64  Z " fill-rule="nonzero" fill="#707070" stroke="none" transform="matrix(1 0 0 1 465 139 )" />
  </g>
</svg>