<?xml version="1.0" encoding="utf-8"?>
<svg version="1.1" xmlns:xlink="http://www.w3.org/1999/xlink" width="20px" height="20px" xmlns="http://www.w3.org/2000/svg">
  <g transform="matrix(1 0 0 1 -1765 -820 )">
    <path d="M 9.96191261875 0.5659435  C 4.760292925 0.5659435  0.527856118749999 4.79840188515625  0.527856118749999 10.0000216  C 0.527856118749999 15.2023536085938  4.75955903125 19.4340565210938  9.96191261875 19.4340565210938  C 15.16426620625 19.4340565210938  19.39596911875 15.2023536085938  19.39596911875 10.0000216  C 19.3959691398438 4.79840188515625  15.1642446484375 0.5659435  9.96191261875 0.5659435  Z M 14.5145035703125 8.4438678671875  L 9.094893259375 13.9224062054688  C 9.0935333875 13.9237660773438  9.0908568015625 13.9244783921875  9.08938899296875 13.926529  C 9.08744630078125 13.927888871875  9.08744630078125 13.9305438789062  9.0853741140625 13.931882171875  C 9.04209545546875 13.9738225375  8.988606915625 13.9995522929688  8.93850729765625 14.0280449710937  C 8.9135330359375 14.0421617945313  8.89317803125 14.0638766710937  8.86675753984375 14.074000215625  C 8.7855749734375 14.1065509515625  8.69962205546875 14.1234522976563  8.61358280078125 14.1234522976563  C 8.526939146875 14.1234522976563  8.43966951484375 14.1065509515625  8.35777463359375 14.07264034375  C 8.33070658515625 14.06117850625  8.3090132875 14.0381469367187  8.28328353203125 14.0239005976563  C 8.23320549296875 13.99549425625  8.1811415828125 13.9703904789063  8.13775500859375 13.9278673140625  C 8.13643829453125 13.9265074421875  8.13570440078125 13.9237445195312  8.13434452890625 13.9223846265625  C 8.13302781484375 13.9203987765625  8.13032965 13.9203987765625  8.128969778125 13.91832656875  L 5.463522521875 11.1790789890625  C 5.202944003125 10.9110319328125  5.20903106875 10.4826487726563  5.47705654609375 10.222027075  C 5.74506044453125 9.96209611328125  6.17283920546875 9.9668448859375  6.4341516390625 10.235604278125  L 8.6183315734375 12.4799857960937  L 13.5526381046875 7.49154316796875  C 13.81528883125 7.22558987734375  14.2444274640625 7.22291329140625  14.5097547765625 7.4861684171875  C 14.7743481953125 7.74942350078125  14.7770463601563 8.17793615546875  14.5145035703125 8.4438678671875  Z " fill-rule="nonzero" fill="#005cff" stroke="none" transform="matrix(1 0 0 1 1765 820 )" />
  </g>
</svg>