<?xml version="1.0" encoding="utf-8"?>
<svg version="1.1" xmlns:xlink="http://www.w3.org/1999/xlink" width="23px" height="22px" xmlns="http://www.w3.org/2000/svg">
  <g transform="matrix(1 0 0 1 -19 -16 )">
    <path d="M 20.4022321428571 20.989375  L 20.4056547619048 21  L 2.56354166666667 21  C 1.32797619047619 20.989375  0.318303571428572 19.97875  0.318303571428572 18.734375  L 0.318303571428572 2.4475  C 0.318303571428572 1.3371875  1.21845238095238 0.4365625  2.32053571428571 0.4365625  L 5.60625 0.4365625  C 6.26681547619048 0.4365625  6.9 0.6359375  7.44077380952381 1.0140625  L 9.17946428571429 2.2309375  C 9.32663690476191 2.3340625  9.43616071428572 2.426875  9.51145833333333 2.4921875  C 9.54568452380953 2.5196875  9.58333333333334 2.5540625  9.60386904761905 2.5678125  C 9.61755952380952 2.57125  9.66205357142857 2.578125  9.74761904761905 3  L 20.3782738095238 3  C 21.4632440476191 2.65375  22.3462797619048 3.5475  22.3462797619048 4.6371875  L 22.3462797619048 5.5653125  L 20.9772321428571 5.5653125  L 20.9772321428571 4.6371875  C 20.9772321428571 4.3003125  20.7034226190476 4.0253125  20.368005952381 4  L 9.73735119047619 4  C 9.14866071428572 3.9496875  8.90565476190477 3.7778125  8.625 3.540625  C 8.55997023809524 3.485625  8.49151785714286 3.42375  8.39568452380953 3.3584375  L 6.65699404761905 2.1415625  C 6.34553571428572 1.925  5.9827380952381 1.808125  5.60625 1.808125  L 2.32053571428572 1.808125  C 1.97142857142858 1.808125  1.68735119047619 2.0934375  2 2.4440625  L 2 18.734375  C 1.68735119047619 19.2190625  2.08095238095239 19.614375  2.56354166666667 19.614375  L 20.4022321428571 19.614375  L 20.4022321428571 20.989375  Z " fill-rule="nonzero" fill="#e16531" stroke="none" transform="matrix(1 0 0 1 19 16 )" />
  </g>
</svg>