<?xml version="1.0" encoding="utf-8"?>
<svg version="1.1" xmlns:xlink="http://www.w3.org/1999/xlink" width="25px" height="17px" xmlns="http://www.w3.org/2000/svg">
  <g transform="matrix(1 0 0 1 -20 -22 )">
    <path d="M 21.039402173913 14.51375  C 20.78125 15.3779166666667  20.0271739130435 15.95875  19.1610054347826 16  L 2.06521739130435 16  C 1.43342391304348 15.95875  0.855978260869566 15.6541666666667  0.48233695652174 15.1264583333333  C 0.108695652173914 14.59875  0 13.9329166666667  0.186820652173914 13.3025  L 3.69565217391304 1.52291666666667  C 3.95380434782609 0.658750000000001  4.70788043478261 0.0814583333333337  5.57404891304348 0  L 22.6664402173913 0  C 23.2982336956522 0.0814583333333337  23.8756793478261 0.386041666666668  24.2493206521739 0.913750000000001  C 24.6229619565217 1.445  24.7316576086957 2.10729166666667  24.5448369565217 2.73770833333333  L 21.039402173913 14.51375  Z M 22.6664402173913 1.49458333333333  L 5.57065217391304 1.49458333333333  C 5.3023097826087 1.49458333333333  5.07133152173913 1.67520833333333  4.9898097826087 1.94083333333333  L 1.48777173913044 13.7204166666667  C 1.43002717391304 13.9152083333333  1.46399456521739 14.120625  1.57948369565217 14.2835416666667  C 1.69497282608696 14.4464583333333  1.875 14.5420833333333  2.06861413043478 14.5420833333333  L 19.1610054347826 14.5420833333333  C 19.429347826087 14.5420833333333  19.6603260869565 14.3614583333333  19.741847826087 14.0958333333333  L 23.2472826086957 2.31624999999999  C 23.305027173913 2.12145833333333  23.2710597826087 1.91604166666666  23.1555706521739 1.753125  C 23.0400815217391 1.59020833333333  22.8600543478261 1.49458333333333  22.6664402173913 1.49458333333333  Z " fill-rule="nonzero" fill="#e16531" stroke="none" transform="matrix(1 0 0 1 20 22 )" />
  </g>
</svg>