<?xml version="1.0" encoding="utf-8"?>
<svg version="1.1" xmlns:xlink="http://www.w3.org/1999/xlink" width="9px" height="4px" xmlns="http://www.w3.org/2000/svg">
  <g transform="matrix(1 0 0 1 -28 -26 )">
    <path d="M 8.412890625 3.7875  C 8.279296875 3.909375  8.096484375 3.96875  7.9171875 3.96875  C 7.737890625 3.96875  7.55859375 3.90625  7.421484375 3.784375  L 4.9921875 1.628125  C 4.869140625 1.51875  4.707421875 1.459375  4.531640625 1.459375  C 4.359375 1.459375  4.194140625 1.51875  4.07109375 1.628125  L 1.77890625 3.665625  C 1.5046875 3.909375  1.058203125 3.909375  0.783984374999998 3.665625  C 0.509765624999998 3.421875  0.509765624999998 3.025  0.783984374999998 2.78125  L 3.076171875 0.743750000000004  C 3.877734375 0.0312500000000036  5.18203125 0.0312500000000036  5.98359375 0.743750000000004  L 8.412890625 2.903125  C 8.687109375 3.146875  8.687109375 3.54375  8.412890625 3.7875  Z " fill-rule="nonzero" fill="#e16531" stroke="none" transform="matrix(1 0 0 1 28 26 )" />
  </g>
</svg>