<?xml version="1.0" encoding="utf-8"?>
<svg version="1.1" xmlns:xlink="http://www.w3.org/1999/xlink" width="22px" height="20px" xmlns="http://www.w3.org/2000/svg">
  <g transform="matrix(1 0 0 1 -19 -18 )">
    <path d="M 13.4077777753906 2.7338888984375  L 12.2222222246094 0.9738888984375  L 18.5166666738281 0.9738888984375  L 18.5166666738281 2.7338888984375  L 13.4077777753906 2.7338888984375  Z M 18.5227777753906 4.56722222460938  L 18.5166666738281 3.27777777539063  L 13.4444444492188 3.27777777539063  L 12.4422222246094 4.56722222460938  L 13.6338888984375 4.56722222460938  C 13.6334568559755 4.58576844158844  13.6332408127706 4.60431906117901  13.6332408127706 4.62287030978722  C 13.6332408127706 5.94252403965858  14.703031532118 7.01231475900597  16.0226852619893 7.01231475900597  C 16.0412365035969 7.01231475900597  16.0597871161877 7.01209871596411  16.0783333261719 7.01166667382813  C 17.4283627172839 7.01166667382813  18.5227777753906 5.91725161572143  18.5227777753906 4.56722222460938  Z M 12.54 10.5988888984375  L 12.5644444492188 15.3472222246094  L 18.3333333261719 7.72666667382813  L 12.4666666738281 7.72666667382813  C 11.8860825649294 7.69644912085522  11.3280327053358 7.9548902405  10.9755555507813 8.41722222460938  L 6.16 14.6688888984375  C 5.93344968940962 14.8897297547295  5.80568394351452 15.192701340402  5.80568394351452 15.5090804279479  C 5.80568394351452 16.1570945304609  6.33100316717343 16.6824137541198  6.97901726968639 16.6824137541198  C 7.39691189545009 16.6824137541198  7.78326702655378 16.4601479024871  7.99333332617188 16.0988888984375  L 12.54 10.5988888984375  Z M 13.8966666738281 15.5855555507813  L 19.745 7.72666667382813  C 20.6649748898085 7.76043683652014  21.3933424225388 8.5160316226131  21.3933424225388 9.43662611627816  C 21.3933424225388 9.47779092605173  21.3918569479404 9.51894233024341  21 9.56  L 21 19.5944444492187  L 12.5644444492187 19.5944444492187  L 12.5644444492187 16.8444444492187  L 20.5088888984375 16.8444444492187  L 20.5088888984375 15.5855555507813  L 13.8966666738281 15.5855555507813  Z M 3.37944444921875 19.5944444492188  L 10.2911111015625 19.5944444492187  C 10.2938577546199 19.5944657345606  10.2966044798421 19.5944763773514  10.2993512153742 19.5944763773514  C 10.8866139954058 19.5944763773514  11.3626845415461 19.1184058312111  11.3626845415461 18.5311430511796  C 11.3626845415461 18.5087081542986  11.3619745225603 18.4862788764891  11.3605555507812 18.4638888984375  L 11.3605555507812 16.8444444492187  L 2.3038888984375 16.8444444492187  L 2.3038888984375 18.4516666738281  C 2.30273700574743 18.472019645501  2.30216071412337 18.4924011135564  2.30216071412337 18.5127866553123  C 2.30216071412337 19.1084637322644  2.78377226246623 19.5920307517314  3.37944444921875 19.5944444492188  Z M 0.4888888984375 8.77777777539063  L 0.4888888984375 15.7505555507813  C 0.48857379541369 15.7611199176289  0.48841621763392 15.7716883953379  0.48841621763392 15.7822574604246  C 0.48841621763392 16.3695202404562  0.964486763774215 16.8455907865965  1.55174954380579 16.8455907865965  C 1.56821005122228 16.8455907865965  1.58466833956454 16.8452085711244  1.6011111015625 16.8444444492188  L 2.3038888984375 16.8444444492188  L 2.3038888984375 7.67777777539063  L 1.61333332617187 7.67777777539063  C 1.59902440788932 7.67720918675681  1.58470560912972 7.67692480834558  1.57038539839624 7.67692480834558  C 0.972997390040763 7.67692480834558  0.48871872456811 8.16120347381823  0.48871872456811 8.75859148217371  C 0.48871872456811 8.76498729058266  0.488775451422387 8.77138297320613  0.4888888984375 8.77777777539063  Z " fill-rule="nonzero" fill="#e16531" stroke="none" transform="matrix(1 0 0 1 19 18 )" />
  </g>
</svg>