<?xml version="1.0" encoding="utf-8"?>
<svg version="1.1" xmlns:xlink="http://www.w3.org/1999/xlink" width="21px" height="24px" xmlns="http://www.w3.org/2000/svg">
  <g transform="matrix(1 0 0 1 -21 -15 )">
    <path d="M 21 2.4  C 21 1.0768  19.9128461538462 0  18.5769230769231 0  L 2.42307692307692 0  C 1.08715384615385 0  0 1.0768  0 2.4  L 0 21.6  C 0 22.9232  1.08715384615385 24  2.42307692307692 24  L 18.5769230769231 24  C 19.9128461538462 24  21 22.9232  21 21.6  L 21 2.4  Z M 5.65384615384615 4  L 5.65384615384615 1.6  L 15.3461538461538 1.6  L 15.3461538461538 4  L 5.65384615384615 4  Z M 19 2.4  L 19 21.6  C 19.3846153846154 22.0418277998646  19.0229992210172 22.4  18.5769230769231 22  L 2.42307692307692 22  C 1.97803846153846 22.4  1.61538461538462 22.0416  2 21.6  L 2 2.4  C 1.61538461538462 1.9592  1.97803846153846 1.6  2.42307692307692 1.6  L 4.03846153846154 1.6  L 4.03846153846154 4  C 4.03846153846154 4.8824  4.76296153846154 5.6  5.65384615384615 5.6  L 15.3461538461538 5.6  C 16.2370384615385 5.6  16.9615384615385 4.8824  16.9615384615385 4  L 16.9615384615385 1.6  L 18.5769230769231 1.6  C 19.0227692307692 1.6  19.3846153846154 1.9592  19 2.4  Z " fill-rule="nonzero" fill="#e16531" stroke="none" transform="matrix(1 0 0 1 21 15 )" />
  </g>
</svg>