<?xml version="1.0" encoding="utf-8"?>
<svg version="1.1" xmlns:xlink="http://www.w3.org/1999/xlink" width="13px" height="9px" xmlns="http://www.w3.org/2000/svg">
  <g transform="matrix(1 0 0 1 -26 -23 )">
    <path d="M 11.519625 0.144941736601821  C 11.3041691432105 0.144941736601821  11.0975377973822 0.231129770468274  10.9451875 0.384545454545455  L 4.613375 6.76063636363636  L 1.56 3.68509090909091  C 1.4076497026178 3.53167522501373  1.20101835678949 3.44548719114728  0.985562500000002 3.44548719114728  C 0.536898904314261 3.44548719114728  0.173185196764306 3.81174435119758  0.173185196764306 4.26354545454546  C 0.173185196764306 4.48050799564816  0.258774702617798 4.68858431592282  0.411125000000002 4.842  L 4.0389375 8.496  C 4.35621862933222 8.81540340409053  4.87053137066778 8.81540340409053  5.1878125 8.496  L 12.0940625 1.54145454545455  C 12.2464127973822 1.38803886137736  12.3320023032357 1.1799625411027  12.3320023032357 0.963000000000003  C 12.3320023032357 0.511198896652125  11.9682885956857 0.144941736601821  11.519625 0.144941736601821  Z " fill-rule="nonzero" fill="#e16531" stroke="none" transform="matrix(1 0 0 1 26 23 )" />
  </g>
</svg>